<?xml version="1.0" encoding="UTF-8" standalone="no"?>
<!-- Generator: Adobe Illustrator 13.0.0, SVG Export Plug-In . SVG Version: 6.00 Build 14948)  -->

<svg
   xmlns:dc="http://purl.org/dc/elements/1.1/"
   xmlns:cc="http://creativecommons.org/ns#"
   xmlns:rdf="http://www.w3.org/1999/02/22-rdf-syntax-ns#"
   xmlns:svg="http://www.w3.org/2000/svg"
   xmlns="http://www.w3.org/2000/svg"
   xmlns:sodipodi="http://sodipodi.sourceforge.net/DTD/sodipodi-0.dtd"
   xmlns:inkscape="http://www.inkscape.org/namespaces/inkscape"
   version="1.1"
   id="Layer_1"
   x="0px"
   y="0px"
   width="40"
   height="40"
   viewBox="0.578 0.58 39.999999 39.999999"
   enable-background="new 0.578 0.58 38.38 38.38"
   xml:space="preserve"
   inkscape:version="0.91 r13725"
   sodipodi:docname="phreakOut.svg"
   inkscape:export-filename="C:\Users\morga\src\PhreakOut\sq.png"
   inkscape:export-xdpi="2304"
   inkscape:export-ydpi="2304"><metadata
     id="metadata20"><rdf:RDF><cc:Work
         rdf:about=""><dc:format>image/svg+xml</dc:format><dc:type
           rdf:resource="http://purl.org/dc/dcmitype/StillImage" /><dc:title></dc:title></cc:Work></rdf:RDF></metadata><defs
     id="defs18" /><sodipodi:namedview
     pagecolor="#ffffff"
     bordercolor="#666666"
     borderopacity="1"
     objecttolerance="10"
     gridtolerance="10"
     guidetolerance="10"
     inkscape:pageopacity="0"
     inkscape:pageshadow="2"
     inkscape:window-width="1920"
     inkscape:window-height="1028"
     id="namedview16"
     showgrid="true"
     fit-margin-top="0.1"
     fit-margin-left="0.1"
     fit-margin-right="0.1"
     fit-margin-bottom="0.1"
     inkscape:zoom="12.298072"
     inkscape:cx="16.155771"
     inkscape:cy="23.066356"
     inkscape:window-x="-8"
     inkscape:window-y="-8"
     inkscape:window-maximized="1"
     inkscape:current-layer="Layer_1"><inkscape:grid
       type="xygrid"
       id="grid8163" /></sodipodi:namedview><polygon
     style="fill:#019de7"
     id="polygon10"
     points="31.738,27.59 31.728,27.59 31.738,22.148 "
     transform="matrix(1.0369984,0,0,1.0369984,0.07861492,0.07854092)" /><path
     style="fill:#019de7"
     d="m 17.479397,4.1136414 -0.04256,3.3033794 c 0,0.042365 -1.004362,-0.1415274 -4.718352,0.3244865 C 10.939163,7.9674528 9.0765605,9.3109779 8.9071006,11.725777 L 8.1304614,20.931088 C 7.9751245,22.83892 7.0285815,24.959102 3.7099971,25.577629 l -0.013299,7.782358 7.0376349,-0.04256 11.133613,-11.274578 -3.268804,-3.268803 a 0.96832215,0.96832215 0 0 1 0,-1.367099 l 5.776925,-5.776925 0.686209,-0.686209 1.367099,1.369759 -0.68355,0.68355 -5.093375,5.093375 3.266144,3.263483 a 0.96832215,0.96832215 0 0 1 0.0027,1.3671 l -10.447403,10.580388 4.130554,-0.0266 0.02926,3.771491 5.888632,0 0,-3.771491 13.923665,-0.01596 0.0133,-7.681288 c 0,0.07061 -4.349032,-0.551269 -4.433762,-4.646541 L 32.2489,11.725768 C 32.192367,11.06206 31.9963,10.370131 31.629138,9.7628994 31.445557,9.4522244 31.218397,9.1686365 30.964207,8.9144468 30.342856,8.3072163 29.510712,7.8686022 28.437467,7.7415073 27.392467,7.6144126 24.991897,7.4585628 23.735072,7.4303194 l -0.04256,-3.316678 -6.213119,0 z M 20.476908,12.279 16.97405,15.781859 a 3.265874,3.265874 0 0 0 0,4.617283 l 1.654349,1.65435 -6.01896,6.096092 -2.8831422,0 0.013299,-1.284649 c 0,-0.02965 2.8813762,-0.550001 3.2767822,-4.758248 l 0.648973,-6.99242 c 0.183581,-1.948784 1.539178,-2.653582 2.739518,-2.667704 1.347912,-0.110033 2.710381,-0.1647 4.072039,-0.167563 z m 6.949864,2.287364 c 0.03726,0.172548 0.06796,0.350752 0.07713,0.547903 l 0.664933,7.090829 c 0.155337,1.597156 0.365888,3.249722 3.260823,4.603986 l -0.0133,1.340502 -9.625547,0 3.766172,-3.814047 a 3.265874,3.265874 0 0 0 -0.01596,-4.603986 l -1.638391,-1.64105 3.468282,-3.468283 0.05586,-0.05585 z"
     id="path12"
     inkscape:connector-curvature="0" /><path
     style="fill:#019de7"
     inkscape:connector-curvature="0"
     id="path14"
     d="m 28.220677,10.811474 c 0.18666,0.18666 0.35258,0.39406 0.48739,0.622199 -0.13481,-0.229176 -0.30073,-0.436576 -0.48739,-0.622199 z" /></svg>